# xmcd
#
# Track frame offsets:
#	150
#	14110
#	27240
#	41260
#	56432
#	75725
#	90295
#	101546
#	120039
#	139506
#	157286
#	180617
#	193280
#	207380
#
# Disc length: 2963 seconds
#
# Revision: 0
# Processed by: cddbd v1.5.2PL0 Copyright (c) Steve Scherf et al.
# Submitted via: audiograbber 1.83.01
#
DISCID=b20b910e
DTITLE=The White Buffalo - Love And The Death Of Damnation
DYEAR=2015
DGENRE=Country
TTITLE0=Dark Days
TTITLE1=Chico
TTITLE2=Go The Distance
TTITLE3=Radio With No Sound
TTITLE4=Home Is In Your Arms
TTITLE5=I Got You
TTITLE6=Modern Times
TTITLE7=Last Call To Heaven
TTITLE8=Where Is Your Savior
TTITLE9=Rocky
TTITLE10=Come On Love, Come On In
TTITLE11=Fantasy
TTITLE12=Darkside Of Town
TTITLE13=I Got You (Radio Edit)
EXTD=
EXTT0=
EXTT1=
EXTT2=
EXTT3=
EXTT4=
EXTT5=
EXTT6=
EXTT7=
EXTT8=
EXTT9=
EXTT10=
EXTT11=
EXTT12=
EXTT13=
PLAYORDER=
